# xmcd CD database file generated by Grip 3.9.0
# 
# Track frame offsets:
#       150
#       17729
#       32777
#       51981
#       71777
#       87401
#       111739
#       128007
#       150752
#       167137
#       184781
#       199815
# 
# Disc length: 2908 seconds
# 
# Revision: 1
# Processed by: cddbd v1.5.2PL0 Copyright (c) Steve Scherf et al.
# Submitted via: Grip 3.9.0
# 
DISCID=a50b5a0c
DTITLE=Christine And The Queens - Chris [CD2)
DYEAR=2018
DGENRE=SynthPop
TTITLE0=Comme si on s'aimait
TTITLE1=Damn, dis moi feat. Dam-funk
TTITLE2=La marcheuse
TTITLE3=Doesn't matter (voleur de soleil)
TTITLE4=5 dols
TTITLE5=Goya! Soda!
TTITLE6=Follarse
TTITLE7=Machin-chose
TTITLE8=Bruce est dans le brouillard
TTITLE9=Le G
TTITLE10=Les yeux mouilles
TTITLE11=L'etranger (voleur d'eau)
EXTD=
EXTT0=
EXTT1=
EXTT2=
EXTT3=
EXTT4=
EXTT5=
EXTT6=
EXTT7=
EXTT8=
EXTT9=
EXTT10=
EXTT11=
PLAYORDER=
